<mxfile host="app.diagrams.net" modified="2021-01-30T11:43:20.920Z" agent="5.0 (Windows NT 10.0; Win64; x64) AppleWebKit/537.36 (KHTML, like Gecko) Chrome/88.0.4324.104 Safari/537.36" etag="oGd1cB9o2eaExB1HvunY" version="14.2.9" type="github">
  <diagram id="TwEqsvzXuoadsSM90Fit" name="Page-1">
    <mxGraphModel dx="1038" dy="492" grid="1" gridSize="10" guides="1" tooltips="1" connect="1" arrows="1" fold="1" page="1" pageScale="1" pageWidth="827" pageHeight="1169" math="0" shadow="0">
      <root>
        <mxCell id="0" />
        <mxCell id="1" parent="0" />
        <mxCell id="X_lUqND-hdomORvJUNvC-1" value="publisher" style="shape=hexagon;perimeter=hexagonPerimeter2;whiteSpace=wrap;html=1;fixedSize=1;" vertex="1" parent="1">
          <mxGeometry x="30" y="210" width="120" height="80" as="geometry" />
        </mxCell>
        <mxCell id="X_lUqND-hdomORvJUNvC-2" value="routing key&lt;br&gt;" style="shape=note;whiteSpace=wrap;html=1;backgroundOutline=1;darkOpacity=0.05;" vertex="1" parent="1">
          <mxGeometry x="210" y="210" width="100" height="100" as="geometry" />
        </mxCell>
        <mxCell id="X_lUqND-hdomORvJUNvC-3" value="messgage" style="shape=document;whiteSpace=wrap;html=1;boundedLbl=1;" vertex="1" parent="1">
          <mxGeometry x="210" y="310" width="100" height="80" as="geometry" />
        </mxCell>
        <mxCell id="X_lUqND-hdomORvJUNvC-4" value="" style="shape=cylinder3;whiteSpace=wrap;html=1;boundedLbl=1;backgroundOutline=1;size=15;direction=south;" vertex="1" parent="1">
          <mxGeometry x="373.5" y="210" width="166.5" height="100" as="geometry" />
        </mxCell>
      </root>
    </mxGraphModel>
  </diagram>
</mxfile>
